<svg width="20" height="21" viewBox="0 0 20 21" fill="none" xmlns="http://www.w3.org/2000/svg">
<path id="Vector" d="M11.0281 0.48585C11.7578 0.483049 12.4876 0.490383 13.2171 0.50785L13.4111 0.51485C13.6351 0.52285 13.8561 0.53285 14.1231 0.54485C15.1871 0.59485 15.9131 0.76285 16.5501 1.00985C17.2101 1.26385 17.7661 1.60785 18.3221 2.16385C18.8305 2.66346 19.2239 3.2678 19.4751 3.93485C19.7221 4.57185 19.8901 5.29885 19.9401 6.36285C19.9521 6.62885 19.9621 6.85085 19.9701 7.07485L19.9761 7.26885C19.9939 7.99804 20.0015 8.72745 19.9991 9.45685L20.0001 10.2029V11.5128C20.0026 12.2426 19.9949 12.9723 19.9771 13.7018L19.9711 13.8959C19.9631 14.1199 19.9531 14.3408 19.9411 14.6078C19.8911 15.6718 19.7211 16.3978 19.4751 17.0348C19.2247 17.7026 18.8312 18.3074 18.3221 18.8069C17.8221 19.3152 17.2174 19.7086 16.5501 19.9599C15.9131 20.2069 15.1871 20.3749 14.1231 20.4249C13.8561 20.4368 13.6351 20.4468 13.4111 20.4548L13.2171 20.4608C12.4876 20.4786 11.7578 20.4863 11.0281 20.4839L10.2821 20.4848H8.97309C8.24335 20.4873 7.51361 20.4796 6.78409 20.4618L6.59009 20.4559C6.3527 20.4472 6.11536 20.4372 5.87809 20.4258C4.81409 20.3759 4.08809 20.2059 3.45009 19.9599C2.78277 19.7092 2.17833 19.3157 1.67909 18.8069C1.17013 18.3071 0.776313 17.7024 0.525089 17.0348C0.278089 16.3978 0.110089 15.6718 0.0600887 14.6078C0.0489516 14.3706 0.0389515 14.1332 0.0300887 13.8959L0.0250888 13.7018C0.0066524 12.9723 -0.00168183 12.2426 8.87195e-05 11.5128V9.45685C-0.00270225 8.72745 0.00463187 7.99805 0.0220888 7.26885L0.0290888 7.07485C0.0370888 6.85085 0.0470887 6.62885 0.0590887 6.36285C0.109089 5.29785 0.277089 4.57285 0.524089 3.93485C0.775461 3.26747 1.17005 2.66329 1.68009 2.16485C2.17898 1.6556 2.78305 1.26142 3.45009 1.00985C4.08809 0.76285 4.81309 0.59485 5.87809 0.54485L6.59009 0.51485L6.78409 0.50985C7.51327 0.491423 8.24267 0.483088 8.97209 0.48485L11.0281 0.48585ZM10.0001 5.48585C9.33759 5.47648 8.67985 5.59887 8.06507 5.84592C7.45029 6.09296 6.89074 6.45973 6.41893 6.9249C5.94713 7.39008 5.57249 7.94439 5.31678 8.55561C5.06106 9.16684 4.92938 9.82279 4.92938 10.4853C4.92938 11.1479 5.06106 11.8039 5.31678 12.4151C5.57249 13.0263 5.94713 13.5806 6.41893 14.0458C6.89074 14.511 7.45029 14.8777 8.06507 15.1248C8.67985 15.3718 9.33759 15.4942 10.0001 15.4848C11.3262 15.4848 12.5979 14.9581 13.5356 14.0204C14.4733 13.0827 15.0001 11.8109 15.0001 10.4848C15.0001 9.15877 14.4733 7.887 13.5356 6.94932C12.5979 6.01163 11.3262 5.48585 10.0001 5.48585ZM10.0001 7.48585C10.3986 7.47851 10.7946 7.55065 11.1649 7.69806C11.5352 7.84547 11.8724 8.06519 12.1569 8.34439C12.4413 8.6236 12.6673 8.95668 12.8215 9.32419C12.9758 9.6917 13.0553 10.0863 13.0554 10.4848C13.0554 10.8834 12.9761 11.278 12.8219 11.6456C12.6678 12.0131 12.4419 12.3463 12.1576 12.6256C11.8732 12.9049 11.5361 13.1247 11.1658 13.2723C10.7955 13.4198 10.3996 13.4921 10.0011 13.4848C9.20544 13.4848 8.44238 13.1688 7.87977 12.6062C7.31716 12.0436 7.00109 11.2805 7.00109 10.4848C7.00109 9.6892 7.31716 8.92614 7.87977 8.36353C8.44238 7.80092 9.20544 7.48485 10.0011 7.48485L10.0001 7.48585ZM15.2501 3.98585C14.9275 3.99876 14.6224 4.136 14.3987 4.36882C14.175 4.60164 14.0501 4.91198 14.0501 5.23485C14.0501 5.55771 14.175 5.86806 14.3987 6.10088C14.6224 6.3337 14.9275 6.47094 15.2501 6.48385C15.5816 6.48385 15.8996 6.35215 16.134 6.11773C16.3684 5.88331 16.5001 5.56537 16.5001 5.23385C16.5001 4.90233 16.3684 4.58439 16.134 4.34997C15.8996 4.11555 15.5816 3.98385 15.2501 3.98385V3.98585Z" fill="#F8F8F8"/>
</svg>
