<svg width="24" height="25" viewBox="0 0 24 25" fill="none" xmlns="http://www.w3.org/2000/svg">
<g id="ri:linkedin-fill">
<path id="Vector" d="M6.93994 5.48501C6.93968 6.01544 6.72871 6.52404 6.35345 6.89893C5.97819 7.27382 5.46937 7.48427 4.93894 7.48401C4.40851 7.48374 3.89991 7.27278 3.52502 6.89752C3.15014 6.52226 2.93968 6.01344 2.93994 5.48301C2.94021 4.95258 3.15117 4.44397 3.52644 4.06909C3.9017 3.6942 4.41051 3.48374 4.94094 3.48401C5.47137 3.48427 5.97998 3.69524 6.35486 4.0705C6.72975 4.44576 6.94021 4.95458 6.93994 5.48501ZM6.99994 8.96501H2.99994V21.485H6.99994V8.96501ZM13.3199 8.96501H9.33994V21.485H13.2799V14.915C13.2799 11.255 18.0499 10.915 18.0499 14.915V21.485H21.9999V13.555C21.9999 7.38501 14.9399 7.61501 13.2799 10.645L13.3199 8.96501Z" fill="#F8F8F8"/>
</g>
</svg>
