<svg width="37" height="25" viewBox="0 0 37 25" fill="none" xmlns="http://www.w3.org/2000/svg">
<path d="M14.1971 11.7503C13.7829 11.7503 13.4471 12.0861 13.4471 12.5003C13.4471 12.9145 13.7829 13.2503 14.1971 13.2503V11.7503ZM27.9121 11.7503H14.1971V13.2503H27.9121V11.7503Z" fill="black"/>
<path d="M22.9577 18.3116C22.898 18.252 22.8506 18.1812 22.8183 18.1032C22.786 18.0253 22.7693 17.9417 22.7693 17.8573C22.7693 17.7729 22.786 17.6894 22.8183 17.6114C22.8506 17.5335 22.898 17.4626 22.9577 17.403L27.86 12.4999L22.9577 7.5968C22.898 7.53714 22.8507 7.46631 22.8184 7.38836C22.7861 7.31041 22.7695 7.22686 22.7695 7.14249C22.7695 7.05812 22.7861 6.97457 22.8184 6.89662C22.8507 6.81867 22.898 6.74784 22.9577 6.68818C23.0174 6.62852 23.0882 6.58119 23.1661 6.54891C23.2441 6.51662 23.3276 6.5 23.412 6.5C23.4964 6.5 23.5799 6.51662 23.6579 6.54891C23.7358 6.58119 23.8067 6.62852 23.8663 6.68818L29.2237 12.0456C29.2835 12.1052 29.3308 12.176 29.3632 12.254C29.3955 12.332 29.4121 12.4155 29.4121 12.4999C29.4121 12.5843 29.3955 12.6679 29.3632 12.7458C29.3308 12.8238 29.2835 12.8946 29.2237 12.9542L23.8663 18.3116C23.8067 18.3713 23.7359 18.4187 23.6579 18.451C23.58 18.4834 23.4964 18.5 23.412 18.5C23.3276 18.5 23.2441 18.4834 23.1661 18.451C23.0882 18.4187 23.0173 18.3713 22.9577 18.3116Z" fill="black"/>
<rect x="1.40469" y="0.6" width="34.8" height="23.8" rx="11.9" stroke="black" stroke-width="1.2"/>
</svg>
